<svg width="64" height="64" viewbox="0 0 64 64"  xmlns="http://www.w3.org/2000/svg"><path fill-rule="evenodd" clip-rule="evenodd" d="M29.948 18.999a2.9 2.9 0 0 0-2.97 2.207l-3.976 21.875A2 2 0 0 0 25 45h29l.052.001a2.9 2.9 0 0 0 2.97-2.207l3.976-21.875A2 2 0 0 0 59 19H30l-.052-.001ZM30.025 17a4.9 4.9 0 0 0-5.009 3.821l-4 22c-.01.06-.016.119-.016.179a4 4 0 0 0 4 4h28.975a4.9 4.9 0 0 0 5.009-3.821l4-22c.01-.06.016-.119.016-.179a4 4 0 0 0-4-4H30.025Z"/><path fill-rule="evenodd" clip-rule="evenodd" d="M1 22a1 1 0 0 1 1-1h16a1 1 0 1 1 0 2H2a1 1 0 0 1-1-1Zm4 8a1 1 0 0 1 1-1h10a1 1 0 1 1 0 2H6a1 1 0 0 1-1-1Zm4 8a1 1 0 0 1 1-1h4a1 1 0 1 1 0 2h-4a1 1 0 0 1-1-1Z"/></svg>