<svg width="64" height="64" viewbox="0 0 64 64" xmlns="http://www.w3.org/2000/svg"><path fill-rule="evenodd" clip-rule="evenodd" d="M7.15 13.15A21 21 0 0 1 22 7h20a21 21 0 1 1 0 42h-5.638L24.64 58.768A1 1 0 0 1 23 58v-9h-1A21 21 0 0 1 7.15 13.15ZM42 9H22a19 19 0 0 0 0 38h2a1 1 0 0 1 1 1v7.865l10.36-8.633A1 1 0 0 1 36 47h6a19 19 0 0 0 0-38Z"/><path fill-rule="evenodd" clip-rule="evenodd" d="M20 27a1 1 0 1 0 0 2 1 1 0 0 0 0-2Zm-3 1a3 3 0 1 1 6 0 3 3 0 0 1-6 0Zm15-1a1 1 0 1 0 0 2 1 1 0 0 0 0-2Zm-3 1a3 3 0 1 1 6 0 3 3 0 0 1-6 0Zm14 0a1 1 0 1 1 2 0 1 1 0 0 1-2 0Zm1-3a3 3 0 1 0 0 6 3 3 0 0 0 0-6Z"/></svg>