<svg width="373" height="449" viewBox="0 0 373 449" fill="none" xmlns="http://www.w3.org/2000/svg">
<g clip-path="url(#clip0_190_7)">
<path fill-rule="evenodd" clip-rule="evenodd" d="M-950.245 -116.044C-972.853 -112.14 -1024.33 -85.8439 -1046.56 -11.5916C-1069.08 63.5973 -1111.74 86.2332 -1130.86 87.972L-1131.14 84.9843C-1113.6 83.3897 -1071.72 61.9589 -1049.44 -12.4522C-1026.87 -87.7999 -974.48 -114.904 -950.755 -119L-950.245 -116.044ZM-920.648 -48.2584C-951.131 -22.1131 -975.893 19.8678 -1004.64 81.6112C-1050.78 180.711 -1107.85 194.528 -1131.38 188.43L-1130.62 185.526C-1109.15 191.094 -1053.22 178.845 -1007.36 80.3449C-978.607 18.5883 -953.619 -23.9308 -922.602 -50.5355C-891.485 -77.2248 -854.452 -87.7796 -801.95 -86.0211L-802.05 -83.0228C-854.048 -84.7643 -890.265 -74.3191 -920.648 -48.2584ZM-856.469 -11.3767C-894.741 21.0024 -918.117 67.3127 -949.143 133.118C-999.022 238.909 -1083.37 258.862 -1119.64 255.472L-1119.36 252.485C-1084.3 255.761 -1001.18 236.447 -951.857 131.838C-920.883 66.1436 -897.259 19.2039 -858.406 -13.667C-819.503 -46.58 -765.519 -65.2517 -674.159 -75.0134L-673.841 -72.0304C-764.981 -62.2921 -818.247 -43.7137 -856.469 -11.3767ZM310.323 133.45C338.109 107.351 358.585 77.2266 370.717 57.2009L373.283 58.7554C361.081 78.8964 340.441 109.276 312.377 135.636C284.318 161.992 248.73 184.431 206.643 188.471C144.669 194.421 105.423 225.49 78.6923 266.3C51.9075 307.192 37.7068 357.836 25.9513 402.857L23.0487 402.099C34.7932 357.12 49.0925 306.014 76.1827 264.656C103.327 223.216 143.331 191.535 206.357 185.485C247.536 181.532 282.531 159.554 310.323 133.45ZM360.885 182.239C363.005 178.994 364.2 176.688 364.571 175.523L367.429 176.433C366.925 178.018 365.527 180.619 363.396 183.88C361.238 187.184 358.251 191.28 354.473 195.89C346.914 205.11 336.156 216.416 322.447 227.579C295.034 249.899 255.747 271.698 206.6 274.975C168.469 277.517 144.691 306.622 130.457 342.605C116.237 378.555 111.751 420.924 112 448.965L109 448.991C108.749 420.699 113.263 377.918 127.668 341.501C142.059 305.118 166.531 274.639 206.4 271.981C254.753 268.758 293.466 247.307 320.553 225.252C334.094 214.227 344.711 203.065 352.152 193.988C355.874 189.449 358.794 185.44 360.885 182.239ZM373.25 280.807C362.538 296.961 327.447 329.935 272.109 333.974C245.395 335.924 229.167 352.126 219.676 371.817C210.159 391.562 207.505 414.68 207.999 429.93L205.001 430.027C204.495 414.442 207.191 390.811 216.974 370.514C226.783 350.164 243.805 333.032 271.891 330.982C326.153 327.021 360.462 294.662 370.75 279.149L373.25 280.807Z" fill="#6E5FFF"/>
</g>
<defs>
<clipPath id="clip0_190_7">
<rect width="373" height="449" fill="white"/>
</clipPath>
</defs>
</svg>
