<svg width="466" height="387" viewBox="0 0 466 387" fill="none" xmlns="http://www.w3.org/2000/svg">
<g clip-path="url(#clip0_190_6)">
<path fill-rule="evenodd" clip-rule="evenodd" d="M180.755 2.47823C158.147 6.38185 106.673 32.6781 84.4369 106.93C61.9205 182.119 19.262 204.755 0.135782 206.494L-0.135825 203.506C17.4046 201.912 59.2795 180.481 81.563 106.07C104.127 30.7221 156.52 3.61835 180.245 -0.478027L180.755 2.47823ZM210.352 70.2636C179.869 96.4088 155.107 138.39 126.36 200.133C80.2203 299.233 23.1455 313.05 -0.376465 306.952L0.376422 304.048C21.8544 309.616 77.7797 297.367 123.64 198.867C152.393 137.11 177.381 94.5912 208.398 67.9865C239.515 41.2972 276.548 30.7424 329.05 32.5009L328.95 35.4992C276.952 33.7576 240.735 44.2028 210.352 70.2636ZM274.531 107.145C236.259 139.524 212.883 185.835 181.857 251.64C131.978 357.431 47.6333 377.384 11.3604 373.994L11.6396 371.007C46.7 374.283 129.822 354.969 179.143 250.36C210.117 184.666 233.741 137.726 272.594 104.855C311.497 71.9419 365.481 53.2703 456.841 43.5086L457.159 46.4916C366.019 56.2299 312.753 74.8083 274.531 107.145ZM1441.32 251.972C1469.11 225.873 1489.59 195.749 1501.72 175.723L1504.28 177.277C1492.08 197.418 1471.44 227.797 1443.38 254.158C1415.32 280.514 1379.73 302.953 1337.64 306.993C1275.67 312.943 1236.42 344.012 1209.69 384.822C1182.91 425.714 1168.71 476.358 1156.95 521.379L1154.05 520.621C1165.79 475.642 1180.09 424.536 1207.18 383.178C1234.33 341.738 1274.33 310.057 1337.36 304.007C1378.54 300.054 1413.53 278.076 1441.32 251.972ZM1491.88 300.761C1494 297.516 1495.2 295.21 1495.57 294.045L1498.43 294.955C1497.92 296.54 1496.53 299.141 1494.4 302.401C1492.24 305.706 1489.25 309.802 1485.47 314.412C1477.91 323.632 1467.16 334.938 1453.45 346.101C1426.03 368.421 1386.75 390.22 1337.6 393.497C1299.47 396.039 1275.69 425.143 1261.46 461.127C1247.24 497.077 1242.75 539.446 1243 567.487L1240 567.513C1239.75 539.221 1244.26 496.44 1258.67 460.023C1273.06 423.64 1297.53 393.161 1337.4 390.503C1385.75 387.28 1424.47 365.829 1451.55 343.774C1465.09 332.749 1475.71 321.587 1483.15 312.51C1486.87 307.971 1489.79 303.962 1491.88 300.761ZM1504.25 399.329C1493.54 415.483 1458.45 448.457 1403.11 452.496C1376.4 454.446 1360.17 470.648 1350.68 490.339C1341.16 510.083 1338.5 533.202 1339 548.451L1336 548.549C1335.5 532.964 1338.19 509.333 1347.97 489.036C1357.78 468.686 1374.8 451.554 1402.89 449.504C1457.15 445.543 1491.46 413.184 1501.75 397.671L1504.25 399.329Z" fill="#6E5FFF"/>
</g>
<defs>
<clipPath id="clip0_190_6">
<rect width="466" height="387" fill="white"/>
</clipPath>
</defs>
</svg>
